<?xml version="1.0" encoding="UTF-8"?>
<svg id="Layer_2" data-name="Layer 2" xmlns="http://www.w3.org/2000/svg" viewBox="0 0 1064.18 924.03">
  <defs>
    <style>
      .cls-1 {
        fill: #1b2f5c;
      }
    </style>
  </defs>
  <g id="Layer_1-2" data-name="Layer 1">
    <g>
      <path class="cls-1" d="M753.65,753.65c-18.67,18.68-39.22,35.63-61.07,50.39-22.05,14.89-45.61,27.68-70.04,38.02-24.87,10.52-50.89,18.6-77.35,24.01-27.17,5.56-55.15,8.38-83.17,8.38s-56-2.82-83.17-8.38c-26.46-5.41-52.48-13.49-77.35-24.01-24.43-10.33-48-23.12-70.04-38.02-21.85-14.76-42.4-31.71-61.07-50.39-18.67-18.67-35.63-39.22-50.39-61.07-14.89-22.05-27.68-45.61-38.02-70.04-10.52-24.87-18.6-50.89-24.01-77.35-5.56-27.17-8.38-55.15-8.38-83.17s2.82-56,8.38-83.17c5.41-26.46,13.5-52.48,24.01-77.35,10.33-24.43,23.12-48,38.02-70.04,14.76-21.85,31.72-42.4,50.39-61.07,18.67-18.67,39.22-35.63,61.07-50.39,22.05-14.89,45.61-27.68,70.04-38.02,24.87-10.52,50.89-18.6,77.35-24.01,27.18-5.56,55.16-8.38,83.17-8.38s56,2.82,83.17,8.38c26.46,5.41,52.48,13.5,77.35,24.01,24.43,10.33,47.99,23.12,70.04,38.02,21.85,14.76,42.4,31.72,61.07,50.39,18.68,18.67,35.63,39.22,50.39,61.07,9.43,13.96,18.01,28.51,25.66,43.52h54.9C812.8,112.99,650.6,0,462.02,0,206.85,0,0,206.85,0,462.02s206.85,462.02,462.02,462.02c146.96,0,277.89-68.61,362.51-175.55l-29.44-43.17c-12.54,17.13-26.43,33.34-41.43,48.34Z"/>
      <polygon class="cls-1" points="813.86 315.54 813.86 334.93 813.86 351.88 859.59 351.88 910.82 351.88 985.25 351.88 985.25 334.93 985.25 315.54 900.33 315.54 847.69 315.54 813.86 315.54"/>
      <polygon class="cls-1" points="813.86 375.5 813.86 392.45 813.86 404.58 813.86 421.53 872.48 421.53 922.28 421.53 985.25 421.53 985.25 404.58 985.25 392.45 985.25 375.5 915.94 375.5 865.37 375.5 813.86 375.5"/>
      <polygon class="cls-1" points="985.25 545.08 985.25 462.1 985.25 445.15 923.73 445.15 874.11 445.15 813.86 445.15 813.86 462.1 813.86 545.08 734.92 545.08 819.11 668.53 849.71 713.41 899.55 786.49 1064.18 545.08 985.25 545.08"/>
      <path class="cls-1" d="M519.25,780.41v-62.74c14.16-3.01,27.25-7.22,39.27-12.63,27.12-12.21,47.78-29.94,61.99-53.18,14.2-23.25,21.31-51.18,21.31-83.82v-.7c0-34.75-6.69-62.16-20.08-82.24-13.38-20.08-30-34.63-49.84-43.67-19.84-9.04-44.67-16.85-74.49-23.42-1.18-.23-2.35-.47-3.52-.7-1.18-.23-2.35-.47-3.52-.7-.24,0-.47-.06-.7-.18-.24-.12-.47-.18-.7-.18-19.72-4.23-35.28-8.33-46.67-12.33-11.39-3.99-20.9-10.33-28.53-19.02-7.63-8.68-11.45-20.66-11.45-35.92v-.35c0-17.61,6.92-31.29,20.78-41.03,13.85-9.74,33.22-14.62,58.11-14.62,17.61,0,35.86,3.7,54.77,11.09,18.9,7.4,37.16,18.02,54.77,31.87l40.86-81.71c-15.03-11.27-30.94-20.9-47.72-28.88-16.79-7.98-33.93-14.09-51.42-18.31-4.43-1.07-8.83-2-13.21-2.8v-60.6h-96.5v63.24c-12.93,3.01-24.92,7.1-35.92,12.31-26.06,12.33-45.96,30.23-59.7,53.71-13.74,23.48-20.6,51.77-20.6,84.88v.35c0,37.57,7.34,66.51,22.01,86.82,14.67,20.31,32.28,34.34,52.83,42.09,20.54,7.75,47.37,14.68,80.48,20.78.7,0,1.46.06,2.29.18.82.12,1.58.3,2.29.53.47.24,1,.35,1.59.35s1.11.12,1.58.35c16.43,3.05,29.94,6.46,40.5,10.21,10.57,3.76,19.19,9.63,25.89,17.61,6.69,7.99,10.04,18.79,10.04,32.4v.35c0,19.49-7.46,34.58-22.36,45.26-14.91,10.69-35.87,16.03-62.87,16.03-24.89,0-48.9-4.4-72.03-13.21-23.13-8.81-43.73-21.31-61.81-37.51l-44.73,79.6c8.22,10.8,21.95,21.08,41.21,30.82,19.25,9.75,41.15,17.61,65.69,23.6,11.35,2.77,22.56,4.89,33.64,6.38v59.66h96.5Z"/>
    </g>
  </g>
</svg>