<?xml version="1.0" encoding="UTF-8"?>
<svg id="Layer_2" data-name="Layer 2" xmlns="http://www.w3.org/2000/svg" viewBox="0 0 983.64 900.09">
  <defs>
    <style>
      .cls-1 {
        stroke-linecap: round;
      }

      .cls-1, .cls-2 {
        stroke: #1b2f5c;
        stroke-linejoin: round;
        stroke-width: 44px;
      }

      .cls-1, .cls-2, .cls-3 {
        fill: none;
      }

      .cls-3 {
        stroke: #231f20;
      }

      .cls-4 {
        fill: #1b2f5c;
      }
    </style>
  </defs>
  <g id="Layer_1-2" data-name="Layer 1">
    <g>
      <g>
        <g>
          <path class="cls-1" d="M193.5,634.06l80.85-27.91c34.52-11.92,72.28-10.27,105.63,4.61l35.21,15.71c11.22,5.01,23.37,7.59,35.66,7.59h174.82c44.45,0,80.49,36.04,80.49,80.49h0c0,13.94-11.3,25.24-25.24,25.24h-194.24"/>
          <path class="cls-1" d="M753.2,678.76l85.92-42.13c40.26-19.67,87.9-11.14,118.82,19.58,6.06,6.02,4.47,16.23-3.08,20.21l-257.98,136.18c-10.84,6.06-139.41,50.52-181.71,62.64-10.84,3.12-22.32,3.86-33.3,1.31-3.37-.78-6.66-1.77-9.92-2.94l-169.06-60.51c-14.45-5.85-30.79-4.82-44.43,2.76l-64.94,36.07"/>
          <path class="cls-2" d="M0,864.64h120.13c12.33,0,22.33-10,22.33-22.33v-204.18c0-12.33-10-22.33-22.33-22.33H0"/>
        </g>
        <g>
          <circle class="cls-1" cx="577.58" cy="405.53" r="168.37" transform="translate(-117.59 527.19) rotate(-45)"/>
          <path class="cls-4" d="M599.32,531.56v-25.11c5.67-1.21,10.91-2.89,15.72-5.06,10.85-4.89,19.12-11.98,24.81-21.29,5.69-9.3,8.53-20.49,8.53-33.55v-.28c0-13.91-2.68-24.88-8.04-32.92-5.36-8.04-12.01-13.86-19.95-17.48-7.94-3.62-17.88-6.74-29.82-9.37-.47-.09-.94-.19-1.41-.28-.47-.09-.94-.19-1.41-.28-.09,0-.19-.02-.28-.07-.09-.05-.19-.07-.28-.07-7.89-1.69-14.12-3.33-18.68-4.93-4.56-1.6-8.37-4.13-11.42-7.61-3.06-3.48-4.58-8.27-4.58-14.38v-.14c0-7.05,2.77-12.52,8.32-16.42,5.54-3.9,13.3-5.85,23.26-5.85,7.05,0,14.35,1.48,21.92,4.44,7.56,2.96,14.87,7.21,21.92,12.76l16.35-32.71c-6.02-4.51-12.38-8.36-19.1-11.56-6.72-3.19-13.58-5.64-20.58-7.33-1.77-.43-3.53-.8-5.29-1.12v-24.25h-38.63v25.31c-5.18,1.2-9.97,2.84-14.38,4.93-10.43,4.93-18.4,12.1-23.89,21.5-5.5,9.4-8.25,20.72-8.25,33.97v.14c0,15.04,2.94,26.62,8.81,34.75,5.87,8.13,12.92,13.74,21.15,16.85,8.22,3.1,18.96,5.87,32.21,8.32.28,0,.59.02.92.07.33.05.63.12.92.21.19.09.4.14.63.14s.44.05.63.14c6.58,1.22,11.98,2.59,16.21,4.09,4.23,1.5,7.68,3.85,10.36,7.05,2.68,3.2,4.02,7.52,4.02,12.97v.14c0,7.8-2.98,13.84-8.95,18.11-5.97,4.28-14.36,6.41-25.16,6.41-9.96,0-19.57-1.76-28.83-5.29-9.26-3.52-17.5-8.53-24.74-15.01l-17.9,31.86c3.29,4.32,8.79,8.44,16.49,12.34,7.71,3.9,16.47,7.05,26.29,9.45,4.54,1.11,9.03,1.96,13.46,2.55v23.88h38.63Z"/>
        </g>
        <g>
          <line class="cls-1" x1="461.79" y1="218.54" x2="461.79" y2="105.8"/>
          <line class="cls-1" x1="693.37" y1="218.54" x2="693.37" y2="105.8"/>
          <line class="cls-1" x1="577.58" y1="134.74" x2="577.58" y2="22"/>
        </g>
      </g>
      <g>
        <g>
          <path class="cls-3" d="M193.5,634.06l80.85-27.91c34.52-11.92,72.28-10.27,105.63,4.61l35.21,15.71c11.22,5.01,23.37,7.59,35.66,7.59h174.82c44.45,0,80.49,36.04,80.49,80.49h0c0,13.94-11.3,25.24-25.24,25.24h-194.24"/>
          <path class="cls-3" d="M753.2,678.76l85.92-42.13c40.26-19.67,87.9-11.14,118.82,19.58,6.06,6.02,4.47,16.23-3.08,20.21l-257.98,136.18c-10.84,6.06-139.41,50.52-181.71,62.64-10.84,3.12-22.32,3.86-33.3,1.31-3.37-.78-6.66-1.77-9.92-2.94l-169.06-60.51c-14.45-5.85-30.79-4.82-44.43,2.76l-64.94,36.07"/>
          <path class="cls-3" d="M0,864.64h120.13c12.33,0,22.33-10,22.33-22.33v-204.18c0-12.33-10-22.33-22.33-22.33H0"/>
        </g>
        <g>
          <circle class="cls-3" cx="577.58" cy="405.53" r="168.37" transform="translate(-117.59 527.19) rotate(-45)"/>
          <path class="cls-3" d="M599.32,531.56v-25.11c5.67-1.21,10.91-2.89,15.72-5.06,10.85-4.89,19.12-11.98,24.81-21.29,5.69-9.3,8.53-20.49,8.53-33.55v-.28c0-13.91-2.68-24.88-8.04-32.92-5.36-8.04-12.01-13.86-19.95-17.48-7.94-3.62-17.88-6.74-29.82-9.37-.47-.09-.94-.19-1.41-.28-.47-.09-.94-.19-1.41-.28-.09,0-.19-.02-.28-.07-.09-.05-.19-.07-.28-.07-7.89-1.69-14.12-3.33-18.68-4.93-4.56-1.6-8.37-4.13-11.42-7.61-3.06-3.48-4.58-8.27-4.58-14.38v-.14c0-7.05,2.77-12.52,8.32-16.42,5.54-3.9,13.3-5.85,23.26-5.85,7.05,0,14.35,1.48,21.92,4.44,7.56,2.96,14.87,7.21,21.92,12.76l16.35-32.71c-6.02-4.51-12.38-8.36-19.1-11.56-6.72-3.19-13.58-5.64-20.58-7.33-1.77-.43-3.53-.8-5.29-1.12v-24.25h-38.63v25.31c-5.18,1.2-9.97,2.84-14.38,4.93-10.43,4.93-18.4,12.1-23.89,21.5-5.5,9.4-8.25,20.72-8.25,33.97v.14c0,15.04,2.94,26.62,8.81,34.75,5.87,8.13,12.92,13.74,21.15,16.85,8.22,3.1,18.96,5.87,32.21,8.32.28,0,.59.02.92.07.33.05.63.12.92.21.19.09.4.14.63.14s.44.05.63.14c6.58,1.22,11.98,2.59,16.21,4.09,4.23,1.5,7.68,3.85,10.36,7.05,2.68,3.2,4.02,7.52,4.02,12.97v.14c0,7.8-2.98,13.84-8.95,18.11-5.97,4.28-14.36,6.41-25.16,6.41-9.96,0-19.57-1.76-28.83-5.29-9.26-3.52-17.5-8.53-24.74-15.01l-17.9,31.86c3.29,4.32,8.79,8.44,16.49,12.34,7.71,3.9,16.47,7.05,26.29,9.45,4.54,1.11,9.03,1.96,13.46,2.55v23.88h38.63Z"/>
        </g>
        <g>
          <line class="cls-3" x1="461.79" y1="218.54" x2="461.79" y2="105.8"/>
          <line class="cls-3" x1="693.37" y1="218.54" x2="693.37" y2="105.8"/>
          <line class="cls-3" x1="577.58" y1="134.74" x2="577.58" y2="22"/>
        </g>
      </g>
    </g>
  </g>
</svg>