<?xml version="1.0" encoding="UTF-8"?>
<svg id="Layer_2" data-name="Layer 2" xmlns="http://www.w3.org/2000/svg" viewBox="0 0 861 1096.82">
  <defs>
    <style>
      .cls-1 {
        fill: #1b2f5c;
      }
    </style>
  </defs>
  <g id="Layer_1-2" data-name="Layer 1">
    <g>
      <path class="cls-1" d="M459.08,38.05h0s-22.97-35.51-22.97-35.51l362.69,149.91c11.26,4.65,19.59,15.18,22.16,27.98,32.03,159.67,68.59,335.66,5.48,494.12-62.08,155.88-219.11,289.27-364.46,413.95-12.57,10.78-30.2,11.12-43.1.82-149.28-119.04-310.53-246.34-377.6-399.75C-26.91,533.63,3.94,356.35,30.8,195.55c2.15-12.9,10.14-23.73,21.24-28.81L409.66,3.04c18.14-8.3,39.02.97,46.65,20.71,7.63,19.74-.89,42.47-19.03,50.77L79.65,238.23l21.24-28.81c-27.9,167.03-51.79,317.6,4.71,446.83,57.62,131.78,200.51,247.02,355.38,370.52l-43.1.82c150.78-129.34,289.86-249.98,343.19-383.89,52.3-131.32,23.55-280.87-9.72-446.73l22.16,27.98L410.82,75.04c-13.6-5.62-22.69-19.68-22.97-35.51h0c-.37-21.42,15.27-39.1,34.94-39.51,19.67-.41,35.92,16.62,36.3,38.03h0Z"/>
      <path class="cls-1" d="M296.68,520.05h0s-12.33-26.85-12.33-26.85l166.25,154.05-60.8,5.18,239.33-317.75c13.07-17.36,38.33-21.25,56.41-8.71,18.08,12.54,22.15,36.78,9.07,54.14l-239.33,317.75c-6.86,9.11-17.5,14.91-29.17,15.91-11.67,1-23.21-2.92-31.63-10.73l-166.25-154.05c-7.62-7.05-12.04-16.7-12.33-26.85h0c-.6-21.41,16.99-39.23,39.3-39.81,22.3-.57,40.87,16.31,41.47,37.72h0Z"/>
    </g>
  </g>
</svg>