<?xml version="1.0" encoding="UTF-8"?>
<svg id="Layer_1" data-name="Layer 1" xmlns="http://www.w3.org/2000/svg" viewBox="0 0 1976.87 854.64">
  <defs>
    <style>
      .cls-1 {
        fill: #ff4f00;
      }

      .cls-2 {
        fill: #002b5e;
      }
    </style>
  </defs>
  <path class="cls-2" d="M303.37,225.65C303.37,94.65,403.66,0,538.42,0c71.46,0,132.88,25.7,173.62,73.34l-52.65,49.52c-31.97-34.47-71.46-51.4-117.21-51.4-90.89,0-156.7,63.93-156.7,154.19s65.81,154.19,156.7,154.19c45.76,0,85.25-16.92,117.21-52.02l52.65,50.14c-40.74,47.64-102.17,73.34-174.25,73.34-134.14,0-234.42-94.65-234.42-225.65Z"/>
  <path class="cls-1" d="M613.54,445.08c0-101.21,77.71-173.65,182.28-173.65,58.04,0,106.49,21.11,138.15,59.48l-49.89,46.05c-22.55-25.9-50.85-39.33-84.43-39.33-62.84,0-107.45,44.13-107.45,107.45s44.61,107.45,107.45,107.45c33.58,0,61.88-13.43,84.43-39.81l49.89,46.05c-31.66,38.86-80.11,59.96-138.63,59.96-104.09,0-181.8-72.43-181.8-173.65Z"/>
  <g>
    <path class="cls-1" d="M1097.5,364.58v166.88h-38.62v-68.42h-75.81v68.42h-38.62v-166.88h38.62v65.8h75.81v-65.8h38.62Z"/>
    <path class="cls-1" d="M1113.96,448.02c0-49.59,38.62-86.3,91.31-86.3s91.31,36.48,91.31,86.3-38.86,86.3-91.31,86.3-91.31-36.71-91.31-86.3ZM1257.47,448.02c0-31.71-22.41-53.4-52.21-53.4s-52.21,21.69-52.21,53.4,22.41,53.4,52.21,53.4,52.21-21.69,52.21-53.4Z"/>
    <path class="cls-1" d="M1313.27,364.58h38.62v166.88h-38.62v-166.88Z"/>
    <path class="cls-1" d="M1373.34,448.02c0-50.31,38.62-86.3,90.6-86.3,28.85,0,52.92,10.49,68.66,29.57l-24.79,22.89c-11.2-12.87-25.27-19.55-41.96-19.55-31.23,0-53.4,21.93-53.4,53.4s22.17,53.4,53.4,53.4c16.69,0,30.75-6.67,41.96-19.78l24.79,22.89c-15.73,19.31-39.81,29.8-68.9,29.8-51.73,0-90.35-36-90.35-86.3h0Z"/>
    <path class="cls-1" d="M1555.96,364.58h124.92v29.8h-124.92v-29.8ZM1555.96,432.29h98.43v28.85h-98.43v-28.85ZM1555.96,501.66h124.92v29.8h-124.92v-29.8Z"/>
  </g>
  <g>
    <path class="cls-2" d="M726.06,92.44h38.62v135.41h83.68v31.47h-122.3V92.44Z"/>
    <path class="cls-2" d="M873.39,92.45h124.92v29.8h-124.92v-29.8ZM873.39,160.15h98.43v28.85h-98.43v-28.85ZM873.39,229.53h124.92v29.8h-124.92v-29.8Z"/>
    <path class="cls-2" d="M1158.76,223.57h-77.48l-14.78,35.76h-39.57l74.38-166.89h38.14l74.62,166.88h-40.53l-14.78-35.76h0ZM1146.6,194.24l-26.46-63.89-26.46,63.89h52.92Z"/>
    <path class="cls-2" d="M1380,259.33h-39.81l-32.66-46.97h-37.43v46.97h-36.71v-76.53h69.38c12.23,0,21.45-2.62,27.65-7.87,6.2-5.24,9.29-12.63,9.29-22.17s-3.09-16.93-9.29-22.17-15.42-7.86-27.65-7.86h-69.38v-30.29h71.28c11.12,0,21.13,1.39,30.04,4.17,8.9,2.79,16.49,6.76,22.77,11.92,6.28,5.17,11.08,11.48,14.42,18.95,3.34,7.47,5.01,15.89,5.01,25.27,0,12.56-3.02,23.33-9.06,32.31-6.04,8.98-14.54,15.77-25.5,20.38l37.66,53.88h0Z"/>
  </g>
  <g>
    <path class="cls-2" d="M103.24,776.74c0,26.53-19.9,43.03-51.71,43.03h-23.98v32.83H0v-119.06h51.54c31.81,0,51.71,16.5,51.71,43.2ZM75.34,776.74c0-13.1-8.5-20.75-25.34-20.75h-22.45v41.33h22.45c16.84,0,25.34-7.65,25.34-20.58Z"/>
    <path class="cls-2" d="M204.44,827.09h-55.28l-10.55,25.51h-28.23l53.07-119.07h27.21l53.24,119.06h-28.91l-10.55-25.51h0ZM195.77,806.17l-18.88-45.59-18.88,45.59h37.76Z"/>
    <path class="cls-2" d="M319.25,810.42v42.18h-27.55v-42.52l-46.09-76.54h29.25l31.81,52.9,31.81-52.9h27.04l-46.26,76.88h0Z"/>
    <path class="cls-2" d="M486.95,852.6l-.17-71.43-35.04,58.85h-12.42l-34.87-57.32v69.9h-25.85v-119.06h22.79l44.56,73.99,43.88-73.99h22.62l.34,119.06h-25.86Z"/>
    <path class="cls-2" d="M537.8,733.54h89.12v21.26h-89.12v-21.26ZM537.8,781.84h70.23v20.58h-70.23v-20.58ZM537.8,831.34h89.12v21.26h-89.12v-21.26Z"/>
    <path class="cls-2" d="M761.3,733.54v119.06h-22.62l-59.36-72.29v72.29h-27.22v-119.06h22.79l59.19,72.29v-72.29h27.22Z"/>
    <path class="cls-2" d="M776.43,755.99v-22.45h103.75v22.45h-38.1v96.61h-27.55v-96.61h-38.1Z"/>
    <path class="cls-2" d="M950.08,840.86l9.36-20.75c10.03,7.31,25,12.42,39.29,12.42,16.33,0,22.96-5.44,22.96-12.76,0-22.28-69.23-6.98-69.23-51.2,0-20.24,16.33-37.08,50.18-37.08,14.97,0,30.28,3.57,41.33,10.55l-8.5,20.92c-11.06-6.29-22.45-9.35-33-9.35-16.33,0-22.62,6.12-22.62,13.61,0,21.94,69.23,6.8,69.23,50.51,0,19.9-16.5,36.91-50.52,36.91-18.88,0-37.93-5.61-48.48-13.78Z"/>
    <path class="cls-2" d="M1062.85,793.07c0-35.38,27.55-61.57,65.14-61.57s65.15,26.03,65.15,61.57-27.72,61.57-65.15,61.57-65.14-26.19-65.14-61.57ZM1165.24,793.07c0-22.62-15.99-38.1-37.25-38.1s-37.25,15.48-37.25,38.1,15.99,38.1,37.25,38.1,37.25-15.48,37.25-38.1Z"/>
    <path class="cls-2" d="M1212.52,733.54h27.55v96.61h59.7v22.45h-87.26v-119.06Z"/>
    <path class="cls-2" d="M1312.87,800.21v-66.67h27.55v65.66c0,22.62,9.86,31.97,26.53,31.97s26.54-9.35,26.54-31.97v-65.66h27.21v66.67c0,35.04-20.07,54.43-53.92,54.43s-53.92-19.39-53.92-54.43h0Z"/>
    <path class="cls-2" d="M1433.8,755.99v-22.45h103.75v22.45h-38.1v96.61h-27.55v-96.61h-38.1Z"/>
    <path class="cls-2" d="M1552.51,733.54h27.55v119.06h-27.55v-119.06Z"/>
    <path class="cls-2" d="M1599.29,793.07c0-35.38,27.55-61.57,65.14-61.57s65.15,26.03,65.15,61.57-27.72,61.57-65.15,61.57-65.14-26.19-65.14-61.57ZM1701.68,793.07c0-22.62-15.99-38.1-37.25-38.1s-37.25,15.48-37.25,38.1,15.99,38.1,37.25,38.1,37.25-15.48,37.25-38.1Z"/>
    <path class="cls-2" d="M1858.16,733.54v119.06h-22.62l-59.36-72.29v72.29h-27.22v-119.06h22.79l59.19,72.29v-72.29h27.22Z"/>
    <path class="cls-2" d="M1877.88,840.86l9.36-20.75c10.04,7.31,25,12.42,39.29,12.42,16.33,0,22.96-5.44,22.96-12.76,0-22.28-69.23-6.98-69.23-51.2,0-20.24,16.33-37.08,50.18-37.08,14.97,0,30.27,3.57,41.33,10.55l-8.5,20.92c-11.06-6.29-22.45-9.35-33-9.35-16.33,0-22.62,6.12-22.62,13.61,0,21.94,69.23,6.8,69.23,50.51,0,19.9-16.5,36.91-50.51,36.91-18.88,0-37.93-5.61-48.48-13.78Z"/>
  </g>
</svg>
